# xmcd CD database file
#
# Track frame offsets:
#	150
#	19959
#	36165
#	50754
#	67854
#	91683
#	107475
#	125333
#	142530
#	160448
#	178431
#	196435
#	210180
#	228834
#	244628
#	263178
#	280887
#	299289
#	314079
#
# Disc length: 4447 seconds
#
# Revision: 3
# Processed by: cddbd v1.5.2PL0 Copyright (c) Steve Scherf et al.
# Submitted via: CDex 1.70beta2
#
DISCID=0e115d13
DTITLE=Various Artist - Play hits party
DYEAR=2002
DGENRE=Pop
TTITLE0=Mad house - Like a prayer
TTITLE1=David Guetta - Love don't let me go
TTITLE2=Models - Fame
TTITLE3=Kylie Minogue - Can't get you out off my head
TTITLE4=Sophie Ellis Bextor - Murder on the dance floor
TTITLE5=Cunnie Williams - Come back to me
TTITLE6=Tiziano Ferro - Perdono
TTITLE7=Eve - Let me blow ya mind
TTITLE8=Mary J Blidge  Family affair
TTITLE9=Destiny's Child - Survivor
TTITLE10=Jennifer Lopez - Ain't it funny
TTITLE11=Westlife - Uptown girl
TTITLE12=Leann Rimes - Can't fight the moonlight
TTITLE13=Gerri Hallywell - It's raining men
TTITLE14=Indeep  Last night a dj save my life
TTITLE15=De la soul  All Good
TTITLE16=Dante Thomas  Miss california
TTITLE17=Afroman - Because i got high
TTITLE18=Fugees - No woman no cry
EXTD=YEAR: 2002
EXTT0=
EXTT1=
EXTT2=
EXTT3=
EXTT4=
EXTT5=
EXTT6=
EXTT7=
EXTT8=
EXTT9=
EXTT10=
EXTT11=
EXTT12=
EXTT13=
EXTT14=
EXTT15=
EXTT16=
EXTT17=
EXTT18=
PLAYORDER=
